<svg aria-hidden="true" style="position: absolute; width: 0; height: 0; overflow: hidden;" version="1.1" xmlns="http://www.w3.org/2000/svg" xmlns:xlink="http://www.w3.org/1999/xlink">
<defs>
<symbol id="icon-burger" viewBox="0 0 45 32">
<path fill="none" stroke="#ffc800" style="stroke: var(--color1, #ffc800)" stroke-linejoin="round" stroke-linecap="round" stroke-miterlimit="4" stroke-width="6.4" d="M3.2 3.2h38.4M3.2 16h38.4M3.2 28.8h38.4"></path>
</symbol>

<symbol id="icon-close" viewBox="0 0 32 32">
<path fill="none" stroke="#ffc800" style="stroke: var(--color1, #ffc800)" stroke-linejoin="round" stroke-linecap="round" stroke-miterlimit="4" stroke-width="6.4" d="M28.8 28.8l-12.8-12.8M16 16l-12.8-12.8M16 16l12.8-12.8M16 16l-12.8 12.8"></path>
</symbol>

<symbol id="icon-text-cloud" viewBox="0 0 39 32">
<path fill="#03fe8b" style="fill: var(--color1, #03fe8b)" opacity="0.4" d="M39.359 16.079c0 0.468-0.028 0.934-0.086 1.398s-0.144 0.923-0.258 1.376c-0.114 0.454-0.256 0.898-0.425 1.334s-0.365 0.86-0.586 1.272c-0.222 0.412-0.468 0.808-0.739 1.189s-0.564 0.745-0.88 1.090-0.652 0.669-1.007 0.973c-0.356 0.303-0.729 0.584-1.12 0.841-0.033 0.144-0.071 0.287-0.114 0.429s-0.089 0.282-0.14 0.421c-0.051 0.139-0.107 0.276-0.166 0.411s-0.123 0.269-0.19 0.401c-0.067 0.131-0.139 0.261-0.214 0.388s-0.155 0.252-0.238 0.374c-0.083 0.123-0.17 0.242-0.26 0.359s-0.184 0.232-0.282 0.343c-0.097 0.111-0.198 0.219-0.302 0.325s-0.211 0.207-0.321 0.306c-0.11 0.099-0.223 0.194-0.339 0.286s-0.235 0.18-0.356 0.265c-0.121 0.085-0.245 0.165-0.371 0.242s-0.255 0.15-0.386 0.219c-0.13 0.069-0.263 0.134-0.398 0.196s-0.271 0.118-0.409 0.17c-0.138 0.053-0.278 0.101-0.419 0.146s-0.283 0.084-0.427 0.119c-0.144 0.035-0.288 0.067-0.434 0.093s-0.291 0.049-0.438 0.067c-0.147 0.018-0.294 0.031-0.442 0.039s-0.295 0.013-0.443 0.013c-0.148 0-0.296-0.005-0.443-0.014s-0.295-0.023-0.442-0.042c-0.146-0.018-0.293-0.041-0.438-0.068s-0.29-0.059-0.434-0.095c-0.143-0.036-0.286-0.076-0.426-0.121s-0.281-0.093-0.419-0.147c-0.138-0.053-0.274-0.11-0.409-0.172s-0.267-0.127-0.397-0.197c-0.131-0.070-0.259-0.144-0.385-0.221s-0.25-0.159-0.371-0.244c-0.061 0.075-0.125 0.148-0.19 0.219s-0.133 0.141-0.202 0.208c-0.069 0.068-0.14 0.133-0.213 0.197s-0.147 0.125-0.223 0.185c-0.076 0.059-0.154 0.117-0.234 0.172s-0.16 0.109-0.242 0.16c-0.082 0.051-0.166 0.1-0.251 0.146s-0.171 0.090-0.258 0.132c-0.087 0.041-0.176 0.081-0.265 0.118s-0.18 0.072-0.272 0.103c-0.091 0.032-0.183 0.062-0.276 0.089s-0.187 0.052-0.281 0.074c-0.094 0.022-0.189 0.041-0.285 0.058s-0.191 0.031-0.287 0.042c-0.096 0.012-0.193 0.020-0.289 0.027s-0.193 0.010-0.29 0.011c-0.097 0.001-0.193-0.001-0.29-0.005s-0.193-0.011-0.29-0.020c-0.096-0.010-0.192-0.022-0.288-0.037s-0.191-0.032-0.286-0.052c-0.095-0.020-0.189-0.042-0.282-0.068s-0.186-0.053-0.278-0.083c-0.092-0.030-0.183-0.063-0.273-0.098s-0.18-0.073-0.268-0.112-0.175-0.082-0.261-0.127c-0.086-0.045-0.17-0.092-0.254-0.141s-0.165-0.101-0.246-0.154c-0.080-0.054-0.16-0.11-0.237-0.168s-0.153-0.118-0.227-0.18c-0.074-0.062-0.146-0.127-0.217-0.193s-0.14-0.134-0.206-0.204c-0.067-0.070-0.132-0.141-0.195-0.215-0.177 0.055-0.356 0.106-0.536 0.152s-0.361 0.089-0.542 0.127c-0.182 0.037-0.365 0.070-0.548 0.099s-0.368 0.053-0.552 0.073c-0.185 0.019-0.37 0.035-0.555 0.045s-0.371 0.017-0.557 0.018c-0.185 0.002-0.371-0.002-0.557-0.009s-0.371-0.020-0.556-0.037c-0.185-0.016-0.369-0.038-0.553-0.064s-0.367-0.056-0.549-0.091c-0.182-0.035-0.364-0.074-0.544-0.118s-0.36-0.092-0.538-0.144c-0.178-0.053-0.355-0.11-0.53-0.171s-0.349-0.127-0.521-0.197c-0.172-0.070-0.343-0.144-0.511-0.222s-0.335-0.16-0.499-0.246c-0.164-0.087-0.327-0.177-0.487-0.271s-0.317-0.192-0.473-0.294c-0.155-0.102-0.308-0.208-0.458-0.317s-0.297-0.222-0.442-0.339c-0.144-0.117-0.286-0.237-0.424-0.361s-0.274-0.251-0.406-0.381c-0.132-0.13-0.261-0.264-0.387-0.4s-0.248-0.276-0.367-0.419c-0.119-0.143-0.234-0.288-0.346-0.437s-0.22-0.299-0.324-0.453c-0.105-0.154-0.205-0.309-0.302-0.468s-0.189-0.319-0.278-0.483c-0.089-0.163-0.174-0.328-0.255-0.495s-0.157-0.336-0.23-0.508c-0.072-0.171-0.14-0.343-0.204-0.518s-0.124-0.35-0.179-0.528c-0.055-0.177-0.106-0.356-0.152-0.536s-0.089-0.36-0.127-0.542c-0.037-0.182-0.071-0.364-0.099-0.548s-0.053-0.368-0.073-0.552c-0.019-0.185-0.035-0.37-0.045-0.555s-0.017-0.371-0.018-0.557c-0.001-0.185 0.001-0.371 0.009-0.557s0.020-0.371 0.037-0.556c0.017-0.185 0.038-0.369 0.064-0.553s0.056-0.367 0.091-0.549c0.035-0.183 0.074-0.364 0.118-0.545s0.092-0.36 0.144-0.538 0.11-0.355 0.171-0.53c0.061-0.175 0.127-0.349 0.197-0.521s0.144-0.343 0.222-0.511c0.078-0.168 0.16-0.335 0.246-0.499s0.177-0.327 0.271-0.487 0.192-0.318 0.294-0.473c0.102-0.155 0.208-0.308 0.317-0.457s0.222-0.297 0.339-0.442c0.117-0.145 0.237-0.286 0.361-0.424s0.251-0.274 0.381-0.406c0.13-0.132 0.264-0.261 0.401-0.387s0.276-0.248 0.419-0.367c0.143-0.119 0.289-0.235 0.436-0.346s0.299-0.22 0.453-0.324c0.154-0.105 0.309-0.205 0.468-0.302s0.319-0.189 0.483-0.278c0.163-0.089 0.328-0.173 0.495-0.254s0.336-0.157 0.508-0.23c0.171-0.072 0.344-0.14 0.518-0.204s0.35-0.123 0.528-0.179c0.351-0.195 0.712-0.383 1.085-0.56 0.122-0.177 0.255-0.345 0.397-0.506s0.294-0.312 0.455-0.455 0.329-0.274 0.506-0.396c0.177-0.122 0.36-0.233 0.55-0.332s0.385-0.188 0.586-0.264c0.2-0.076 0.405-0.139 0.614-0.191s0.419-0.090 0.632-0.115c0.213-0.026 0.427-0.038 0.641-0.038 0-0.174 0.008-0.348 0.025-0.522s0.042-0.346 0.076-0.517c0.034-0.171 0.076-0.34 0.127-0.507s0.108-0.331 0.175-0.492c0.067-0.162 0.141-0.319 0.223-0.473s0.171-0.304 0.268-0.449c0.097-0.145 0.2-0.285 0.311-0.42s0.227-0.264 0.35-0.388 0.252-0.241 0.386-0.352c0.135-0.111 0.274-0.215 0.419-0.312s0.294-0.187 0.448-0.27c0.154-0.083 0.311-0.158 0.472-0.224s0.325-0.127 0.492-0.177c0.167-0.051 0.336-0.094 0.507-0.128s0.343-0.060 0.517-0.078c0.174-0.018 0.347-0.027 0.522-0.027s0.348 0.008 0.522 0.024c0.174 0.017 0.346 0.042 0.517 0.075s0.34 0.076 0.508 0.126c0.167 0.051 0.331 0.109 0.493 0.175s0.319 0.141 0.473 0.222c0.154 0.082 0.304 0.171 0.449 0.268s0.285 0.2 0.42 0.31 0.265 0.227 0.388 0.35c0.124 0.123 0.241 0.252 0.352 0.387s0.215 0.274 0.312 0.419c0.097 0.145 0.187 0.294 0.27 0.448s0.157 0.311 0.224 0.472c0.067 0.161 0.127 0.325 0.178 0.491s0.094 0.336 0.128 0.507c0.035 0.171 0.060 0.343 0.078 0.517s0.027 0.347 0.027 0.522c0.213-0.075 0.428-0.145 0.645-0.207s0.436-0.118 0.656-0.168c0.221-0.049 0.442-0.092 0.665-0.128s0.447-0.065 0.672-0.088 0.45-0.039 0.676-0.048c0.226-0.010 0.452-0.012 0.677-0.008s0.452 0.015 0.677 0.033c0.225 0.018 0.45 0.042 0.674 0.073s0.447 0.069 0.668 0.113 0.441 0.095 0.66 0.153c0.218 0.057 0.435 0.121 0.65 0.192s0.427 0.147 0.638 0.23c0.21 0.083 0.417 0.172 0.622 0.268s0.406 0.197 0.605 0.304c0.199 0.108 0.394 0.221 0.586 0.34s0.38 0.244 0.564 0.374c0.185 0.13 0.365 0.266 0.542 0.407s0.348 0.288 0.516 0.439c0.167 0.151 0.33 0.308 0.489 0.469s0.312 0.327 0.46 0.497c0.148 0.17 0.291 0.345 0.43 0.524s0.271 0.362 0.398 0.548c0.127 0.187 0.249 0.377 0.364 0.571s0.226 0.391 0.329 0.592c0.104 0.201 0.202 0.404 0.294 0.611s0.177 0.416 0.257 0.627c0.079 0.212 0.152 0.425 0.218 0.641s0.127 0.434 0.181 0.653c0.053 0.22 0.101 0.44 0.141 0.663s0.074 0.446 0.101 0.67c0.027 0.224 0.047 0.449 0.061 0.675s0.020 0.451 0.021 0.677z"></path>
</symbol>

<symbol id="icon-Star" viewBox="0 0 32 32">
<path fill="#ffc800" style="fill: var(--color1, #ffc800)" d="M16 1.333l5.643 8.233 9.574 2.822-6.087 7.911 0.274 9.978-9.405-3.344-9.405 3.344 0.274-9.978-6.087-7.911 9.574-2.822 5.643-8.233z"></path>
</symbol>

<symbol id="icon-Light-ellipse" viewBox="0 0 39 32">
<path fill="#fffb00" style="fill: var(--color1, #fffb00)" d="M29.268 15.918c0 3.403-4.368 6.162-9.756 6.162s-9.756-2.759-9.756-6.162c0-3.403 4.368-6.162 9.756-6.162s9.756 2.759 9.756 6.162z"></path>
</symbol>

</defs>
</svg>
